<?xml version="1.0" encoding="UTF-8"?>
<!DOCTYPE svg PUBLIC "-//W3C//DTD SVG 1.1//EN"
    "http://www.w3.org/Graphics/SVG/1.1/DTD/svg11.dtd"><svg stroke="rgb(0,0,0)" xmlns="http://www.w3.org/2000/svg" font-size="1" width="2000.0000" stroke-opacity="1" xmlns:xlink="http://www.w3.org/1999/xlink" viewBox="0.0 0.0 2000.0 1000.0" height="1000.0000" version="1.1"><defs></defs><g fill="rgb(0,0,0)" stroke="rgb(0,0,0)" stroke-linecap="butt" stroke-width="5.266244708835067" stroke-miterlimit="10.0" fill-opacity="0.0" stroke-opacity="1.0" stroke-linejoin="miter"><path d="M 1303.0303,196.9697 l 303.0303,303.0303 "/></g><g fill="rgb(0,0,0)" stroke="rgb(0,0,0)" stroke-linecap="butt" stroke-width="5.266244708835067" stroke-miterlimit="10.0" fill-opacity="0.0" stroke-opacity="1.0" stroke-linejoin="miter"><path d="M 1303.0303,196.9697 l -606.0606,303.0303 "/></g><g fill="rgb(255,255,255)" stroke="rgb(0,0,0)" stroke-linecap="butt" stroke-width="5.266244708835067" stroke-miterlimit="10.0" fill-opacity="1.0" stroke-opacity="1.0" stroke-linejoin="miter"><path d="M 1909.0909,572.7273 v -145.4545 c 0.0000,-10.0415 -8.1403,-18.1818 -18.1818 -18.1818h -569.6970 c -10.0415,-0.0000 -18.1818,8.1403 -18.1818 18.1818v 145.4545 c -0.0000,10.0415 8.1403,18.1818 18.1818 18.1818h 569.6970 c 10.0415,0.0000 18.1818,-8.1403 18.1818 -18.1818Z"/></g><g fill="rgb(0,0,0)" stroke="rgb(0,0,0)" stroke-linecap="butt" stroke-width="5.266244708835067" font-size="60.60606060606061px" stroke-miterlimit="10.0" fill-opacity="1.0" stroke-opacity="1.0" stroke-linejoin="miter"><text dominant-baseline="text-after-edge" stroke="none" transform="matrix(1.0000,0.0000,0.0000,1.0000,1606.0606,560.6061)" text-anchor="middle">t - &quot;loc3&quot;</text></g><g fill="rgb(0,0,0)" stroke="rgb(0,0,0)" stroke-linecap="butt" stroke-width="5.266244708835067" font-size="60.60606060606061px" stroke-miterlimit="10.0" fill-opacity="1.0" stroke-opacity="1.0" stroke-linejoin="miter"><text dominant-baseline="text-after-edge" stroke="none" transform="matrix(1.0000,0.0000,0.0000,1.0000,1606.0606,500.0000)" text-anchor="middle">Surveill</text></g><g fill="rgb(0,0,0)" stroke="rgb(0,0,0)" stroke-linecap="butt" stroke-width="5.266244708835067" stroke-miterlimit="10.0" fill-opacity="0.0" stroke-opacity="1.0" stroke-linejoin="miter"><path d="M 696.9697,500.0000 l 303.0303,303.0303 "/></g><g fill="rgb(0,0,0)" stroke="rgb(0,0,0)" stroke-linecap="butt" stroke-width="5.266244708835067" stroke-miterlimit="10.0" fill-opacity="0.0" stroke-opacity="1.0" stroke-linejoin="miter"><path d="M 696.9697,500.0000 l -303.0303,303.0303 "/></g><g fill="rgb(255,255,255)" stroke="rgb(0,0,0)" stroke-linecap="butt" stroke-width="5.266244708835067" stroke-miterlimit="10.0" fill-opacity="1.0" stroke-opacity="1.0" stroke-linejoin="miter"><path d="M 1303.0303,875.7576 v -145.4545 c 0.0000,-10.0415 -8.1403,-18.1818 -18.1818 -18.1818h -569.6970 c -10.0415,-0.0000 -18.1818,8.1403 -18.1818 18.1818v 145.4545 c -0.0000,10.0415 8.1403,18.1818 18.1818 18.1818h 569.6970 c 10.0415,0.0000 18.1818,-8.1403 18.1818 -18.1818Z"/></g><g fill="rgb(0,0,0)" stroke="rgb(0,0,0)" stroke-linecap="butt" stroke-width="5.266244708835067" font-size="60.60606060606061px" stroke-miterlimit="10.0" fill-opacity="1.0" stroke-opacity="1.0" stroke-linejoin="miter"><text dominant-baseline="text-after-edge" stroke="none" transform="matrix(1.0000,0.0000,0.0000,1.0000,1000.0000,863.6364)" text-anchor="middle">t - &quot;loc2&quot;</text></g><g fill="rgb(0,0,0)" stroke="rgb(0,0,0)" stroke-linecap="butt" stroke-width="5.266244708835067" font-size="60.60606060606061px" stroke-miterlimit="10.0" fill-opacity="1.0" stroke-opacity="1.0" stroke-linejoin="miter"><text dominant-baseline="text-after-edge" stroke="none" transform="matrix(1.0000,0.0000,0.0000,1.0000,1000.0000,803.0303)" text-anchor="middle">Surveill</text></g><g fill="rgb(255,255,255)" stroke="rgb(0,0,0)" stroke-linecap="butt" stroke-width="5.266244708835067" stroke-miterlimit="10.0" fill-opacity="1.0" stroke-opacity="1.0" stroke-linejoin="miter"><path d="M 696.9697,875.7576 v -145.4545 c 0.0000,-10.0415 -8.1403,-18.1818 -18.1818 -18.1818h -569.6970 c -10.0415,-0.0000 -18.1818,8.1403 -18.1818 18.1818v 145.4545 c -0.0000,10.0415 8.1403,18.1818 18.1818 18.1818h 569.6970 c 10.0415,0.0000 18.1818,-8.1403 18.1818 -18.1818Z"/></g><g fill="rgb(0,0,0)" stroke="rgb(0,0,0)" stroke-linecap="butt" stroke-width="5.266244708835067" font-size="60.60606060606061px" stroke-miterlimit="10.0" fill-opacity="1.0" stroke-opacity="1.0" stroke-linejoin="miter"><text dominant-baseline="text-after-edge" stroke="none" transform="matrix(1.0000,0.0000,0.0000,1.0000,393.9394,863.6364)" text-anchor="middle">t - &quot;loc1&quot;</text></g><g fill="rgb(0,0,0)" stroke="rgb(0,0,0)" stroke-linecap="butt" stroke-width="5.266244708835067" font-size="60.60606060606061px" stroke-miterlimit="10.0" fill-opacity="1.0" stroke-opacity="1.0" stroke-linejoin="miter"><text dominant-baseline="text-after-edge" stroke="none" transform="matrix(1.0000,0.0000,0.0000,1.0000,393.9394,803.0303)" text-anchor="middle">Surveill</text></g><g fill="rgb(255,255,255)" stroke="rgb(0,0,0)" stroke-linecap="butt" stroke-width="5.266244708835067" stroke-miterlimit="10.0" fill-opacity="1.0" stroke-opacity="1.0" stroke-linejoin="miter"><path d="M 1000.0000,572.7273 v -145.4545 c 0.0000,-10.0415 -8.1403,-18.1818 -18.1818 -18.1818h -569.6970 c -10.0415,-0.0000 -18.1818,8.1403 -18.1818 18.1818v 145.4545 c -0.0000,10.0415 8.1403,18.1818 18.1818 18.1818h 569.6970 c 10.0415,0.0000 18.1818,-8.1403 18.1818 -18.1818Z"/></g><g fill="rgb(0,0,0)" stroke="rgb(0,0,0)" stroke-linecap="butt" stroke-width="5.266244708835067" font-size="60.60606060606061px" stroke-miterlimit="10.0" fill-opacity="1.0" stroke-opacity="1.0" stroke-linejoin="miter"><text dominant-baseline="text-after-edge" stroke="none" transform="matrix(1.0000,0.0000,0.0000,1.0000,696.9697,560.6061)" text-anchor="middle">| - &quot;loc2&quot;+&quot;loc1&quot;</text></g><g fill="rgb(0,0,0)" stroke="rgb(0,0,0)" stroke-linecap="butt" stroke-width="5.266244708835067" font-size="60.60606060606061px" stroke-miterlimit="10.0" fill-opacity="1.0" stroke-opacity="1.0" stroke-linejoin="miter"><text dominant-baseline="text-after-edge" stroke="none" transform="matrix(1.0000,0.0000,0.0000,1.0000,696.9697,500.0000)" text-anchor="middle">Surveill</text></g><g fill="rgb(255,255,255)" stroke="rgb(0,0,0)" stroke-linecap="butt" stroke-width="5.266244708835067" stroke-miterlimit="10.0" fill-opacity="1.0" stroke-opacity="1.0" stroke-linejoin="miter"><path d="M 1606.0606,269.6970 v -145.4545 c 0.0000,-10.0415 -8.1403,-18.1818 -18.1818 -18.1818h -569.6970 c -10.0415,-0.0000 -18.1818,8.1403 -18.1818 18.1818v 145.4545 c -0.0000,10.0415 8.1403,18.1818 18.1818 18.1818h 569.6970 c 10.0415,0.0000 18.1818,-8.1403 18.1818 -18.1818Z"/></g><g fill="rgb(0,0,0)" stroke="rgb(0,0,0)" stroke-linecap="butt" stroke-width="5.266244708835067" font-size="60.60606060606061px" stroke-miterlimit="10.0" fill-opacity="1.0" stroke-opacity="1.0" stroke-linejoin="miter"><text dominant-baseline="text-after-edge" stroke="none" transform="matrix(1.0000,0.0000,0.0000,1.0000,1303.0303,257.5758)" text-anchor="middle">| - &quot;loc3&quot;+&quot;loc2&quot;+&quot;loc1&quot;</text></g><g fill="rgb(0,0,0)" stroke="rgb(0,0,0)" stroke-linecap="butt" stroke-width="5.266244708835067" font-size="60.60606060606061px" stroke-miterlimit="10.0" fill-opacity="1.0" stroke-opacity="1.0" stroke-linejoin="miter"><text dominant-baseline="text-after-edge" stroke="none" transform="matrix(1.0000,0.0000,0.0000,1.0000,1303.0303,196.9697)" text-anchor="middle">Surveill</text></g></svg>